<svg xmlns="http://www.w3.org/2000/svg" viewBox="0 0 1440 320"><path fill="#f3f4f5" fill-opacity="1" d="M0,128L30,149.3C60,171,120,213,180,240C240,267,300,277,360,245.3C420,213,480,139,540,90.7C600,43,660,21,720,53.3C780,85,840,171,900,197.3C960,224,1020,192,1080,192C1140,192,1200,224,1260,240C1320,256,1380,256,1410,256L1440,256L1440,0L1410,0C1380,0,1320,0,1260,0C1200,0,1140,0,1080,0C1020,0,960,0,900,0C840,0,780,0,720,0C660,0,600,0,540,0C480,0,420,0,360,0C300,0,240,0,180,0C120,0,60,0,30,0L0,0Z"></path></svg>