
<svg xlink="http://www.w3.org/1999/xlink" viewBox="0 0 5000 5000" xmlns="http://www.w3.org/2000/svg" style="transform: scale(1);"><defs><filter id="goo"><feGaussianBlur in="SourceGraphic" stdDeviation="0.55" result="blur"></feGaussianBlur><feColorMatrix in="blur" type="matrix" values="1 0 0 0 0 0 1 0 0 0 0 0 1 0 0 0 0 0 19 -9" result="good"></feColorMatrix><feComposite in="SourceGraphic" in2="goo" operator="atop"></feComposite></filter><path d="M365,408C301,450 224,455 167,426C110,399 71,349 57,274C50,199 83,129 135,92C199,50 276,45 333,74C390,101 429,151 443,226C450,301 417,371 365,408z" id="P0"></path><path d="M311,62L386,394L56,287L311,62z" id="P1"></path><path d="M377,266L234,377L123,234L266,123L377,266z" id="P2"></path><path d="M306,369L155,340L135,187L275,121L380,234L306,369z" id="P3"></path><path d="M359,134L404,290L299,401L141,366L96,210L201,99L359,134z" id="P4"></path><path d="M143,161C179,121 232,104 276,113C320,122 356,150 379,199C397,250 387,304 357,339C321,379 268,396 224,387C180,378 144,350 121,301C103,250 113,196 143,161z" id="P5"></path><path d="M120,167L385,176L240,404L120,167z" id="P6"></path><path d="M197,85L415,197L303,415L85,303L197,85z" id="P7"></path><path d="M227,69L415,173L375,383L162,409L71,216L227,69z" id="P8"></path><path d="M377,145L403,311L281,412L123,355L97,189L219,88L377,145z" id="P9"></path><path d="M243,131C289,130 330,153 350,186C371,219 375,258 358,301C336,342 296,367 257,369C211,370 170,347 150,314C129,281 125,242 142,199C164,158 204,133 243,131z" id="P10"></path><path d="M303,383L108,232L341,140L303,383z" id="P11"></path><path d="M206,78L422,206L294,422L78,294L206,78z" id="P12"></path><path d="M405,138L405,362L191,432L59,250L191,68L405,138z" id="P13"></path><path d="M258,379L141,319L133,195L242,121L359,181L367,305L258,379z" id="P14"></path></defs><rect id="RECT" width="5000" height="5000" fill="#111"></rect><g id="group" fill="#151515" filter="url(#goo)"><use x="-118" y="446" href="#P2"></use><use x="341" y="821" href="#P12"></use><use x="-188" y="2169" href="#P0"></use><use x="298" y="2551" href="#P5"></use><use x="24" y="3474" href="#P4"></use><use x="177" y="4782" href="#P11"></use><use x="-42" y="5266" href="#P11"></use><use x="734" y="327" href="#P7"></use><use x="712" y="689" href="#P4"></use><use x="1169" y="1854" href="#P10"></use><use x="1508" y="2312" href="#P10"></use><use x="814" y="3447" href="#P0"></use><use x="868" y="4486" href="#P11"></use><use x="1045" y="5241" href="#P6"></use><use x="1894" y="381" href="#P8"></use><use x="1731" y="1235" href="#P13"></use><use x="2159" y="1915" href="#P12"></use><use x="2158" y="2445" href="#P2"></use><use x="1981" y="3600" href="#P3"></use><use x="2078" y="4265" href="#P14"></use><use x="2128" y="5168" href="#P2"></use><use x="3136" y="51" href="#P10"></use><use x="2629" y="938" href="#P14"></use><use x="2863" y="1967" href="#P8"></use><use x="3222" y="3034" href="#P3"></use><use x="2647" y="3809" href="#P6"></use><use x="2933" y="4670" href="#P14"></use><use x="3017" y="4988" href="#P14"></use><use x="3821" y="308" href="#P7"></use><use x="3979" y="1266" href="#P5"></use><use x="3920" y="1495" href="#P2"></use><use x="3621" y="2520" href="#P13"></use><use x="4092" y="3411" href="#P2"></use><use x="3901" y="4593" href="#P7"></use><use x="3932" y="5223" href="#P5"></use><use x="4513" y="-214" href="#P3"></use><use x="5194" y="879" href="#P11"></use><use x="4557" y="1624" href="#P7"></use><use x="4959" y="2721" href="#P7"></use><use x="4378" y="3528" href="#P8"></use><use x="4649" y="4162" href="#P11"></use><use x="4897" y="5480" href="#P14"></use></g></svg>
